<svg width="430" height="658" viewBox="0 0 430 658" fill="none" xmlns="http://www.w3.org/2000/svg">
<path d="M45.5 0H95.5L204.5 335L429.5 658H73L45.5 0Z" fill="#FF5757"/>
<path d="M45.5 0H95.5L204.5 335L429.5 658H73L45.5 0Z" fill="#FF5757"/>
<path d="M45.5 0H95.5L204.5 335L429.5 658H73L45.5 0Z" fill="#FF5757"/>
<path d="M45.5 0H95.5L204.5 335L429.5 658H73L45.5 0Z" fill="#FF5757"/>
<path d="M21 0H57.5L166.5 335L294.5 658H35L21 0Z" fill="#FF0202"/>
<path d="M21 0H57.5L166.5 335L294.5 658H35L21 0Z" fill="#FF0202"/>
<path d="M21 0H57.5L166.5 335L294.5 658H35L21 0Z" fill="#FF0202"/>
<path d="M21 0H57.5L166.5 335L294.5 658H35L21 0Z" fill="#FF0202"/>
<path d="M0 0H22.5L154.5 658H0V0Z" fill="#FF3939"/>
<path d="M0 0H22.5L154.5 658H0V0Z" fill="#FF3939"/>
<path d="M0 0H22.5L154.5 658H0V0Z" fill="#FF3939"/>
<path d="M0 0H22.5L154.5 658H0V0Z" fill="#FF3939"/>
</svg>
